<svg xmlns="http://www.w3.org/2000/svg" viewBox="0 0 299 249">
  <path d="M104.833436,110.831185 L5.92466188,110.831185 C2.65276735,110.831185 0,108.176667 0,104.902613 L0,5.92857143 C0,2.65451786 2.65276735,0 5.92466188,0 L29.6233094,0 C32.8952039,0 35.5479713,2.65451786 35.5479713,5.92857143 L35.5479713,44.519619 C58.1471003,19.4056964 90.9731831,3.69053571 127.466632,3.95583929 C195.060112,4.44692262 249.143387,59.1029167 248.999714,126.742482 C248.856041,194.288179 194.091923,249 126.557196,249 C94.9150581,249 66.0782476,236.98822 44.3475753,217.274732 C41.8300877,214.991244 41.7140631,211.072458 44.1170072,208.668423 L60.8872564,191.887107 C63.0961678,189.676738 66.6450403,189.556685 68.984788,191.627732 C84.3079385,205.195762 104.461663,213.428571 126.557196,213.428571 C174.58053,213.428571 213.452237,174.539119 213.452237,126.47619 C213.452237,78.4216607 174.58843,39.5238095 126.557196,39.5238095 C97.6764443,39.5238095 72.1095534,53.5923095 56.3134174,75.259756 L104.833436,75.259756 C108.10533,75.259756 110.758098,77.9142738 110.758098,81.1883274 L110.758098,104.902613 C110.758098,108.176667 108.10533,110.831185 104.833436,110.831185 Z" transform="rotate(0 146.253 124.5)"/>
</svg>
