<svg xmlns="http://www.w3.org/2000/svg" viewBox="0 0 256 257">
  <path fill="#FFF" d="M102.15,3 C52.45,12.7 12.4,52.65 2.6,102.2 C-15.9,195.7 68.45,265.4 132,255.55 C152.6,252.35 162.7,228.25 153.25,209.7 C141.7,187 158.2,160.5 183.7,160.5 L223.55,160.5 C241.45,160.5 255.95,145.7 256,127.85 C255.75,49.05 184.05,-12.95 102.15,3 Z M48,160.5 C39.15,160.5 32,153.35 32,144.5 C32,135.65 39.15,128.5 48,128.5 C56.85,128.5 64,135.65 64,144.5 C64,153.35 56.85,160.5 48,160.5 Z M64,96.5 C55.15,96.5 48,89.35 48,80.5 C48,71.65 55.15,64.5 64,64.5 C72.85,64.5 80,71.65 80,80.5 C80,89.35 72.85,96.5 64,96.5 Z M128,64.5 C119.15,64.5 112,57.35 112,48.5 C112,39.65 119.15,32.5 128,32.5 C136.85,32.5 144,39.65 144,48.5 C144,57.35 136.85,64.5 128,64.5 Z M192,96.5 C183.15,96.5 176,89.35 176,80.5 C176,71.65 183.15,64.5 192,64.5 C200.85,64.5 208,71.65 208,80.5 C208,89.35 200.85,96.5 192,96.5 Z"/>
</svg>
