<?xml version="1.0" standalone="no"?>
<!DOCTYPE svg PUBLIC "-//W3C//DTD SVG 20010904//EN"
 "http://www.w3.org/TR/2001/REC-SVG-20010904/DTD/svg10.dtd">
<svg version="1.0" xmlns="http://www.w3.org/2000/svg"
 width="700.000000pt" height="700.000000pt" viewBox="0 0 700.000000 700.000000"
 preserveAspectRatio="xMidYMid meet">
<metadata>
Created by potrace 1.11, written by Peter Selinger 2001-2013
</metadata>
<g transform="translate(0.000000,700.000000) scale(0.100000,-0.100000)"
fill="#000000" stroke="none">
<path d="M3298 6995 c-2 -1 -41 -5 -88 -9 -121 -8 -290 -32 -435 -60 -132 -26
-478 -128 -500 -147 -5 -5 -15 -9 -23 -9 -8 0 -28 -6 -45 -14 -220 -97 -295
-131 -308 -143 -8 -7 -19 -13 -24 -13 -31 0 -400 -235 -527 -337 -235 -186
-510 -464 -628 -633 -13 -19 -27 -37 -30 -40 -17 -13 -145 -209 -209 -317
-158 -269 -289 -583 -365 -877 -14 -54 -28 -108 -30 -120 -2 -11 -13 -68 -24
-126 -11 -58 -24 -132 -27 -165 -4 -33 -9 -69 -11 -80 -19 -99 -25 -566 -10
-715 8 -80 24 -206 32 -255 3 -16 7 -41 9 -55 39 -265 170 -661 312 -944 239
-477 597 -911 1003 -1215 52 -39 100 -75 105 -79 72 -58 290 -187 475 -283 49
-25 193 -91 205 -93 6 -1 28 -10 49 -20 50 -21 248 -88 341 -115 125 -36 379
-87 480 -97 33 -3 62 -7 65 -9 16 -10 226 -20 410 -20 218 0 365 9 487 29 21
4 52 8 68 10 43 6 179 32 260 51 386 90 784 263 1110 481 151 101 156 105 191
134 18 14 47 36 65 50 114 85 362 323 473 453 240 282 456 634 580 947 21 52
42 104 47 115 21 49 81 242 103 332 13 54 27 112 32 128 4 17 9 39 11 50 2 11
10 57 18 101 19 100 34 213 43 319 13 159 5 632 -13 720 -2 11 -7 40 -10 65
-3 25 -7 56 -10 70 -6 27 -11 54 -20 110 -82 475 -315 1002 -637 1437 -166
226 -445 506 -666 670 -42 32 -79 60 -82 64 -24 27 -439 279 -460 279 -4 0
-27 11 -51 24 -178 100 -620 248 -864 291 -22 4 -49 9 -60 10 -36 7 -228 34
-285 40 -54 7 -526 16 -532 10z"/>
</g>
</svg>
