<?xml version="1.0" standalone="no"?>
<!DOCTYPE svg PUBLIC "-//W3C//DTD SVG 20010904//EN"
 "http://www.w3.org/TR/2001/REC-SVG-20010904/DTD/svg10.dtd">
<svg version="1.0" xmlns="http://www.w3.org/2000/svg"
 width="700.000000pt" height="700.000000pt" viewBox="0 0 700.000000 700.000000"
 preserveAspectRatio="xMidYMid meet">
<metadata>
Created by potrace 1.11, written by Peter Selinger 2001-2013
</metadata>
<g transform="translate(0.000000,700.000000) scale(0.100000,-0.100000)"
fill="#000000" stroke="none">
<path d="M3340 6994 c-383 -25 -654 -77 -973 -184 -1027 -347 -1840 -1165
-2182 -2195 -127 -381 -178 -704 -178 -1115 0 -411 51 -734 178 -1115 344
-1037 1163 -1856 2200 -2200 381 -127 704 -178 1115 -178 411 0 734 51 1115
178 1037 344 1856 1163 2200 2200 127 381 178 704 178 1115 0 411 -51 734
-178 1115 -344 1037 -1163 1856 -2200 2200 -254 85 -509 140 -760 164 -113 11
-432 21 -515 15z m563 -1521 c216 -125 642 -372 947 -548 l555 -321 0 -1104 0
-1104 -949 -548 c-522 -301 -952 -548 -956 -548 -4 0 -281 158 -616 351 -335
193 -746 430 -914 526 -168 96 -322 186 -343 199 l-37 24 2 1102 3 1102 590
341 c325 188 750 434 945 548 195 113 361 206 368 206 7 1 189 -101 405 -226z"/>
<path d="M3278 5281 l-218 -126 3 -255 2 -254 210 -122 c116 -68 217 -123 225
-123 8 0 110 55 225 123 l210 122 3 254 2 255 -217 125 c-119 69 -219 126
-222 126 -3 1 -104 -55 -223 -125z"/>
<path d="M2318 4728 l-468 -271 0 -559 0 -559 58 32 c31 18 120 70 197 114
l140 81 5 355 5 354 230 133 c127 73 251 146 278 162 l47 29 0 201 c0 154 -3
200 -12 199 -7 0 -223 -122 -480 -271z"/>
<path d="M4190 4811 l0 -189 303 -175 302 -174 3 -361 2 -360 143 -82 c78 -46
157 -91 175 -102 l32 -20 0 555 0 554 -470 272 c-258 149 -474 271 -480 271
-6 0 -10 -69 -10 -189z"/>
<path d="M2725 4252 l-220 -127 0 -254 0 -255 219 -126 220 -127 218 126 218
126 0 256 0 256 -197 113 c-109 63 -207 119 -218 126 -18 12 -44 0 -240 -114z"/>
<path d="M3904 4264 c-109 -63 -209 -122 -222 -130 l-22 -15 2 -251 3 -252
219 -127 219 -126 181 105 c99 57 198 114 218 126 l38 21 0 256 0 256 -172 99
c-95 54 -193 111 -219 126 l-46 27 -199 -115z"/>
<path d="M3275 3206 l-210 -122 -3 -255 -2 -254 220 -128 220 -127 220 127
220 128 -2 254 -3 255 -210 122 c-115 68 -217 123 -225 123 -8 0 -109 -55
-225 -123z"/>
<path d="M4485 3186 l-210 -122 0 -259 0 -260 210 -122 c116 -67 215 -122 220
-122 6 0 105 55 220 122 l210 122 0 260 0 259 -210 122 c-115 68 -214 123
-220 123 -5 -1 -104 -56 -220 -123z"/>
<path d="M2075 3175 l-210 -123 0 -258 0 -258 195 -114 c107 -62 205 -118 217
-124 18 -9 50 6 237 113 l216 124 -3 259 -2 258 -215 124 c-118 68 -217 124
-220 123 -3 -1 -99 -56 -215 -124z"/>
<path d="M3791 2195 c-156 -91 -287 -165 -291 -165 -4 0 -132 72 -284 160
-152 88 -281 160 -288 160 -14 0 -368 -203 -368 -211 0 -4 212 -128 470 -278
l470 -271 453 261 c248 144 464 268 479 278 l27 16 -182 105 c-100 58 -186
106 -192 107 -5 2 -138 -72 -294 -162z"/>
</g>
</svg>
