<svg xmlns="http://www.w3.org/2000/svg" viewBox="0 0 553 553">
  <g fill="none" fill-rule="evenodd">
    <rect width="553" height="553" fill="#222C39" rx="276.5"/>
    <g stroke="#F4B865" stroke-width="20" transform="translate(114 114)">
      <path d="M162.5 0L303.229 81.25 303.229 243.75 162.5 325 21.771 243.75 21.771 81.25z"/>
      <path d="M162.5 0L207.295 25.863 207.295 77.588 162.5 103.451 117.705 77.588 117.705 25.863z"/>
      <path d="M257.711 165.704L302.507 191.567 302.507 243.292 257.711 269.155 212.916 243.292 212.916 191.567z"/>
      <path d="M67.289 166.62L112.084 192.482 112.084 244.208 67.289 270.07 22.493 244.208 22.493 192.482z"/>
      <path d="M118.556 81.479L163.352 107.342 163.352 159.067 118.556 184.93 73.761 159.067 73.761 107.342z"/>
      <path d="M210.106 81.479L254.901 107.342 254.901 159.067 210.106 184.93 165.31 159.067 165.31 107.342z"/>
      <path d="M162.5 163.873L207.295 189.736 207.295 241.461 162.5 267.324 117.705 241.461 117.705 189.736z"/>
    </g>
  </g>
</svg>
