<svg xmlns="http://www.w3.org/2000/svg" width="553" height="553" viewBox="0 0 553 553">
  <g fill="none" fill-rule="evenodd">
    <rect width="553" height="553" fill="#332E54" rx="276.5"/>
    <polygon stroke="#F4B865" stroke-width="20" points="276.5 99 430.22 187.75 430.22 365.25 276.5 454 122.78 365.25 122.78 187.75"/>
    <polygon stroke="#F4B865" stroke-width="20" points="276.5 99 325.43 127.25 325.43 183.75 276.5 212 227.57 183.75 227.57 127.25"/>
    <polygon stroke="#F4B865" stroke-width="20" points="380.5 280 429.43 308.25 429.43 364.75 380.5 393 331.57 364.75 331.57 308.25"/>
    <polygon stroke="#F4B865" stroke-width="20" points="172.5 281 221.43 309.25 221.43 365.75 172.5 394 123.57 365.75 123.57 309.25"/>
    <polygon stroke="#F4B865" stroke-width="20" points="228.5 188 277.43 216.25 277.43 272.75 228.5 301 179.57 272.75 179.57 216.25"/>
    <polygon stroke="#F4B865" stroke-width="20" points="328.5 188 377.43 216.25 377.43 272.75 328.5 301 279.57 272.75 279.57 216.25"/>
    <polygon stroke="#F4B865" stroke-width="20" points="276.5 278 325.43 306.25 325.43 362.75 276.5 391 227.57 362.75 227.57 306.25"/>
  </g>
</svg>
