<svg xmlns="http://www.w3.org/2000/svg" width="22" height="21" viewBox="0 0 22 21">
  <g fill="none" fill-rule="evenodd" stroke="#FFF">
    <path d="M13.2001577,4.5056134 C13.1337479,4.50187782 13.0670109,4.5 13,4.5 L4,4.5 C2.06700338,4.5 0.5,6.06700338 0.5,8 L0.5,17 C0.5,18.9329966 2.06700338,20.5 4,20.5 L13,20.5 C14.9329966,20.5 16.5,18.9329966 16.5,17 L16.5,8 C16.5,7.97652023 16.4997695,7.95307386 16.4993093,7.92966316 L9.82439301,14.6807032 L6.5,14.6807032 L6.5,11.2057711 L13.2001577,4.5056134 Z"/>
    <polygon points="18.413 0 7 11.413 7 14.181 9.616 14.181 20.981 2.686"/>
  </g>
</svg>
