<svg xmlns="http://www.w3.org/2000/svg" width="107" height="16" viewBox="0 0 107 16">
  <g fill="none" fill-rule="evenodd">
    <g fill="#000">
      <path d="M7.024 5.232C6.77866544 5.14666624 6.51466808 5.07466696 6.232 5.016 5.94933192 4.95733304 5.66933472 4.928 5.392 4.928 4.34666144 4.928 3.56800256 5.17333088 3.056 5.664 2.54399744 6.15466912 2.288 6.933328 2.288 8 2.288 8.46933568 2.36266592 8.88799816 2.512 9.256 2.66133408 9.62400184 2.87466528 9.93599872 3.152 10.192 3.42933472 10.4480013 3.76266472 10.6453326 4.152 10.784 4.54133528 10.9226674 4.97066432 10.992 5.44 10.992 5.94133584 10.992 6.42933096 10.9066675 6.904 10.736 7.37866904 10.5653325 7.7759984 10.3413347 8.096 10.064L8.656 10.992C8.50666592 11.1200006 8.32000112 11.2533326 8.096 11.392 7.87199888 11.5306674 7.6133348 11.6613327 7.32 11.784 7.0266652 11.9066673 6.70133512 12.005333 6.344 12.08 5.98666488 12.154667 5.60000208 12.192 5.184 12.192 4.4906632 12.192 3.88000264 12.0933343 3.352 11.896 2.82399736 11.6986657 2.38400176 11.4160018 2.032 11.048 1.67999824 10.6799982 1.41333424 10.2373359 1.232 9.72 1.05066576 9.20266408.96 8.62933648.96 8 .96 7.32799664 1.0533324 6.73066928 1.24 6.208 1.4266676 5.68533072 1.69599824 5.24800176 2.048 4.896 2.40000176 4.54399824 2.82666416 4.2746676 3.328 4.088 3.82933584 3.9013324 4.38933024 3.808 5.008 3.808 5.79733728 3.808 6.43999752 3.87733264 6.936 4.016 7.43200248 4.15466736 7.85066496 4.30933248 8.192 4.48L8.176 4.528 8.176 6.752 7.024 6.752 7.024 5.232zM10.512 8C10.512 6.70932688 10.8479966 5.68800376 11.52 4.936 12.1920034 4.18399624 13.1519938 3.808 14.4 3.808 15.0720034 3.808 15.6506642 3.91733224 16.136 4.136 16.6213358 4.35466776 17.0239984 4.6506648 17.344 5.024 17.6640016 5.3973352 17.9013326 5.83999744 18.056 6.352 18.2106674 6.86400256 18.288 7.4133304 18.288 8 18.288 8.6400032 18.2026675 9.21866408 18.032 9.736 17.8613325 10.2533359 17.6106683 10.6933315 17.28 11.056 16.9493317 11.4186685 16.5413358 11.6986657 16.056 11.896 15.5706642 12.0933343 15.0186698 12.192 14.4 12.192 13.7386634 12.192 13.1626691 12.0826678 12.672 11.864 12.1813309 11.6453322 11.7760016 11.3493352 11.456 10.976 11.1359984 10.6026648 10.8986674 10.1600026 10.744 9.648 10.5893326 9.13599744 10.512 8.5866696 10.512 8zM11.84 8C11.84 8.3733352 11.8853329 8.7466648 11.976 9.12 12.0666671 9.4933352 12.2133323 9.82933184 12.416 10.128 12.6186677 10.4266682 12.882665 10.6666658 13.208 10.848 13.533335 11.0293342 13.9306643 11.12 14.4 11.12 15.2533376 11.12 15.8959978 10.8560026 16.328 10.328 16.7600022 9.79999736 16.976 9.02400512 16.976 8 16.976 7.61599808 16.9306671 7.24000184 16.84 6.872 16.7493329 6.50399816 16.600001 6.17066816 16.392 5.872 16.183999 5.57333184 15.917335 5.33333424 15.592 5.152 15.266665 4.97066576 14.8693357 4.88 14.4 4.88 13.5466624 4.88 12.9066688 5.14133072 12.48 5.664 12.0533312 6.18666928 11.84 6.96532816 11.84 8zM24.784.8L27.376.8 27.376 9.264C27.376 9.36000048 27.3813333 9.47999928 27.392 9.624 27.4026667 9.76800072 27.4159999 9.9199992 27.432 10.08 27.4480001 10.2400008 27.4666666 10.3973326 27.488 10.552 27.5093334 10.7066674 27.5306666 10.8426661 27.552 10.96L28.624 10.96 28.624 12 26.496 12 26.336 10.768 26.272 10.768C26.0373322 11.1733354 25.6880023 11.5119986 25.224 11.784 24.7599977 12.0560014 24.224003 12.192 23.616 12.192 22.4106606 12.192 21.5226695 11.8533367 20.952 11.176 20.3813305 10.4986633 20.096 9.44534048 20.096 8.016 20.096 7.34399664 20.191999 6.74933592 20.384 6.232 20.576001 5.71466408 20.8506649 5.2826684 21.208 4.936 21.5653351 4.5893316 21.9946642 4.32533424 22.496 4.144 22.9973358 3.96266576 23.5573302 3.872 24.176 3.872 24.4000011 3.872 24.5999991 3.87733328 24.776 3.888 24.9520009 3.89866672 25.1146659 3.91466656 25.264 3.936 25.4133341 3.95733344 25.554666 3.98666648 25.688 4.024 25.821334 4.06133352 25.9679992 4.10133312 26.128 4.144L26.128 1.872 24.784 1.872 24.784.8zM23.824 11.12C24.4746699 11.12 24.9866648 10.9520017 25.36 10.616 25.7333352 10.2799983 25.9893326 9.77600336 26.128 9.104L26.128 5.392C25.8933322 5.2319992 25.6293348 5.11466704 25.336 5.04 25.0426652 4.96533296 24.6560024 4.928 24.176 4.928 23.3226624 4.928 22.6506691 5.17599752 22.16 5.672 21.6693309 6.16800248 21.424 6.949328 21.424 8.016 21.424 8.45333552 21.4639996 8.86133144 21.544 9.24 21.6240004 9.61866856 21.7573324 9.94666528 21.944 10.224 22.1306676 10.5013347 22.3786651 10.7199992 22.688 10.88 22.9973349 11.0400008 23.3759978 11.12 23.824 11.12zM37.264 10.992C37.071999 11.1626675 36.8453346 11.3226659 36.584 11.472 36.3226654 11.6213341 36.0373349 11.7493328 35.728 11.856 35.4186651 11.9626672 35.0960017 12.045333 34.76 12.104 34.4239983 12.162667 34.085335 12.192 33.744 12.192 33.1039968 12.192 32.5386691 12.0933343 32.048 11.896 31.5573309 11.6986657 31.1466683 11.4160018 30.816 11.048 30.4853317 10.6799982 30.2346675 10.2400026 30.064 9.728 29.8933325 9.21599744 29.808 8.6400032 29.808 8 29.808 7.32799664 29.9013324 6.73066928 30.088 6.208 30.2746676 5.68533072 30.5439982 5.24800176 30.896 4.896 31.2480018 4.54399824 31.6746642 4.2746676 32.176 4.088 32.6773358 3.9013324 33.2373302 3.808 33.856 3.808 34.3040022 3.808 34.7466645 3.86666608 35.184 3.984 35.6213355 4.10133392 36.0079983 4.32266504 36.344 4.648 36.6800017 4.97333496 36.9386658 5.42133048 37.12 5.992 37.3013342 6.56266952 37.3653336 7.3013288 37.312 8.208L31.12 8.208C31.12 9.1680048 31.3786641 9.88533096 31.896 10.36 32.4133359 10.834669 33.1039957 11.072 33.968 11.072 34.2560014 11.072 34.5413319 11.0373337 34.824 10.968 35.1066681 10.8986663 35.3759987 10.8160005 35.632 10.72 35.8880013 10.6239995 36.1146657 10.5173339 36.312 10.4 36.5093343 10.2826661 36.6613328 10.1760005 36.768 10.08L37.264 10.992zM33.888 4.864C33.5359982 4.864 33.2026682 4.90133296 32.888 4.976 32.5733318 5.05066704 32.2960012 5.17599912 32.056 5.352 31.8159988 5.52800088 31.6186674 5.75733192 31.464 6.04 31.3093326 6.32266808 31.2106669 6.67199792 31.168 7.088L36.144 7.088C36.0906664 6.38399648 35.864002 5.83733528 35.464 5.448 35.063998 5.05866472 34.5386699 4.864 33.888 4.864z"/>
    </g>
    <g fill="#FCA311" transform="translate(59)">
      <polygon points="10.024 12 7.704 12 7.704 7.216 2.44 7.216 2.44 12 .12 12 .12 .224 2.44 .224 2.44 4.976 7.704 4.976 7.704 .224 10.024 .224"/>
      <path d="M12.152 8.416C12.152 7.70132976 12.3199983 7.06133616 12.656 6.496 12.9920017 5.93066384 13.4666636 5.48533496 14.08 5.16 14.6933364 4.83466504 15.3893294 4.672 16.168 4.672 16.9466706 4.672 17.631997 4.83466504 18.224 5.16 18.816003 5.48533496 19.2719984 5.93066384 19.592 6.496 19.9120016 7.06133616 20.072 7.70132976 20.072 8.416 20.072 9.13067024 19.9120016 9.77599712 19.592 10.352 19.2719984 10.9280029 18.816003 11.378665 18.224 11.704 17.631997 12.029335 16.936004 12.192 16.136 12.192 15.3573294 12.192 14.6666697 12.0400015 14.064 11.736 13.4613303 11.4319985 12.9920017 10.9973362 12.656 10.432 12.3199983 9.86666384 12.152 9.19467056 12.152 8.416zM14.408 8.432C14.408 8.98666944 14.5679984 9.44799816 14.888 9.816 15.2080016 10.1840018 15.6133309 10.368 16.104 10.368 16.6160026 10.368 17.0293318 10.1866685 17.344 9.824 17.6586682 9.46133152 17.816 8.99733616 17.816 8.432 17.816 7.86666384 17.6586682 7.40266848 17.344 7.04 17.0293318 6.67733152 16.6160026 6.496 16.104 6.496 15.6133309 6.496 15.2080016 6.67999816 14.888 7.048 14.5679984 7.41600184 14.408 7.87733056 14.408 8.432zM26.696 4.672C27.3573366 4.672 27.9093311 4.86933136 28.352 5.264 28.7946689 5.65866864 29.0213333 6.15999696 29.032 6.768L29.032 12 26.792 12 26.792 7.6C26.7599998 6.91732992 26.4186699 6.576 25.768 6.576 25.2559974 6.576 24.8453349 6.8159976 24.536 7.296 24.2266651 7.7760024 24.072 8.39466288 24.072 9.152L24.072 12 21.832 12 21.832 5.008 23.864 5.008 24.024 6.128C24.2800013 5.66933104 24.6346644 5.31200128 25.088 5.056 25.5413356 4.79999872 26.0773302 4.672 26.696 4.672zM34.824 10.288C35.2720022 10.288 35.7359976 10.1333349 36.216 9.824L37.208 11.488C36.8239981 11.7013344 36.4186688 11.8719994 35.992 12 35.5653312 12.1280006 35.1600019 12.192 34.776 12.192 33.9439958 12.192 33.2266697 12.0346682 32.624 11.72 32.0213303 11.4053318 31.5653349 10.9626695 31.256 10.392 30.9466651 9.82133048 30.792 9.16800368 30.792 8.432 30.792 7.74932992 30.9706649 7.12000288 31.328 6.544 31.6853351 5.96799712 32.1733302 5.51200168 32.792 5.176 33.4106698 4.83999832 34.0879963 4.672 34.824 4.672 35.8266717 4.672 36.6506634 4.9653304 37.296 5.552 37.9413366 6.1386696 38.359999 6.97599456 38.552 8.064L33.432 9.696C33.773335 10.0906686 34.2373304 10.288 34.824 10.288zM34.648 6.416C34.1466642 6.416 33.7466682 6.58666496 33.448 6.928 33.1493318 7.26933504 33 7.72799712 33 8.304L33 8.448 36.072 7.408C35.8479989 6.74666336 35.373337 6.416 34.648 6.416z"/>
      <polygon points="47.416 5.008 42.904 15.36 40.744 15.36 42.424 11.632 39.192 5.008 41.704 5.008 43.544 9.136 45.4 5.008"/>
    </g>
    <polygon fill="#FCA311" points="44.949 2 51.315 2 54 7.111 51.315 12.222 44.949 12.222 42 7.111" transform="rotate(90 48 7.111)"/>
  </g>
</svg>
